<svg width="681" height="649" viewBox="0 0 681 649" fill="none" xmlns="http://www.w3.org/2000/svg">
<path d="M642.056 337.142C462.848 654.237 441.386 632.298 328.711 632.298C87.6209 632.298 42.9084 554.481 10.7155 337.142C-1.44637 135.916 277.56 11.7993 375.569 0.850596C492.18 -12.176 761.645 125.538 642.056 337.142Z" fill="#E9C7FF"/>
<path d="M462.315 595.751C451.89 593.767 448.655 602.468 445.409 609.529C449.408 610.591 455.103 615.839 463.053 614.216C471.004 612.594 473.53 597.885 462.315 595.751Z" fill="#8806CE"/>
<path d="M423.1 597.847C425.659 607.733 435.252 606.84 443.3 606.654C442.603 602.733 445.139 595.562 440.226 589.355C435.313 583.149 420.347 587.212 423.1 597.847Z" fill="#8806CE"/>
<path d="M462.447 542.998C465.006 552.884 474.599 551.991 482.647 551.805C481.95 547.884 484.486 540.713 479.573 534.507C474.66 528.3 459.694 532.363 462.447 542.998Z" fill="#8806CE"/>
<path d="M504.959 551.048C496.963 544.339 489.625 550.326 483.132 554.889C486.043 557.724 488.24 564.997 495.973 567.398C503.706 569.799 513.562 558.267 504.959 551.048Z" fill="#8806CE"/>
<path d="M488.659 529.61C493.705 538.574 502.764 535.421 510.511 533.32C508.818 529.689 509.41 522.139 503.04 517.3C496.669 512.461 483.23 519.966 488.659 529.61Z" fill="#8806CE"/>
<path d="M532.389 538.368C526.749 529.735 517.922 533.442 510.333 536.018C512.267 539.537 512.185 547.108 518.868 551.543C525.551 555.977 538.457 547.656 532.389 538.368Z" fill="#8806CE"/>
<path d="M557.921 518.774C552.281 510.141 543.454 513.848 535.865 516.424C537.799 519.943 537.717 527.514 544.4 531.948C551.083 536.383 563.989 528.062 557.921 518.774Z" fill="#8806CE"/>
<path d="M512.824 510.561C517.871 519.525 526.929 516.372 534.676 514.271C532.983 510.64 533.575 503.09 527.205 498.251C520.835 493.412 507.395 500.917 512.824 510.561Z" fill="#8806CE"/>
<path d="M438.839 568.366C441.398 578.252 450.99 577.359 459.039 577.172C458.342 573.252 460.877 566.081 455.964 559.874C451.051 553.668 436.086 557.73 438.839 568.366Z" fill="#8806CE"/>
<path d="M480.261 571.278C470.767 566.699 465.225 574.255 460.13 580.229C463.688 582.277 467.714 588.791 475.828 589.262C483.942 589.732 490.474 576.204 480.261 571.278Z" fill="#8806CE"/>
<path d="M442.101 616.186C444.963 599.617 461.918 560.651 506.845 537.341C551.772 514.03 541.542 499.289 551.558 482.835" stroke="black" stroke-width="2"/>
<path d="M543.06 483.108C534.941 489.68 540.019 497.53 543.754 504.366C547.115 502.032 554.947 501.039 558.582 494.071C562.217 487.103 551.795 476.037 543.06 483.108Z" fill="#8806CE"/>
<path d="M410.103 602.02C400.756 606.867 404.057 615.544 406.259 622.966C410.046 621.339 417.924 621.898 422.966 615.786C428.007 609.675 420.16 596.805 410.103 602.02Z" fill="#8806CE"/>
<path d="M381.304 627.612C389.856 633.66 396.648 627.107 402.721 622.042C399.574 619.449 396.752 612.377 388.837 610.602C380.922 608.827 372.103 621.106 381.304 627.612Z" fill="#8806CE"/>
<path d="M375.085 561.319C383.637 567.367 390.429 560.813 396.502 555.748C393.355 553.155 390.533 546.083 382.618 544.309C374.703 542.534 365.884 554.813 375.085 561.319Z" fill="#8806CE"/>
<path d="M413.179 541.522C402.554 541.245 400.89 550.343 398.928 557.826C403.057 558.23 409.591 562.486 417.144 559.607C424.697 556.727 424.609 541.82 413.179 541.522Z" fill="#8806CE"/>
<path d="M386.354 534.982C396.208 538.799 401.084 530.832 405.65 524.477C401.929 522.716 397.359 516.541 389.232 516.71C381.105 516.879 375.753 530.876 386.354 534.982Z" fill="#8806CE"/>
<path d="M425.857 514.986C415.767 511.787 411.438 520.04 407.309 526.664C411.142 528.19 416.119 534.07 424.217 533.398C432.316 532.726 436.713 518.428 425.857 514.986Z" fill="#8806CE"/>
<path d="M432.472 484.286C422.381 481.088 418.052 489.34 413.924 495.964C417.756 497.49 422.733 503.371 430.832 502.699C438.93 502.027 443.327 487.728 432.472 484.286Z" fill="#8806CE"/>
<path d="M392.279 505.538C402.133 509.355 407.009 501.388 411.575 495.033C407.854 493.272 403.284 487.096 395.157 487.266C387.03 487.435 381.678 501.432 392.279 505.538Z" fill="#8806CE"/>
<path d="M373.795 595.288C382.347 601.335 389.139 594.782 395.212 589.717C392.065 587.124 389.243 580.052 381.328 578.278C373.413 576.503 364.594 588.782 373.795 595.288Z" fill="#8806CE"/>
<path d="M407.628 572.202C397.27 574.481 398.034 583.688 398.087 591.404C402.19 590.804 409.627 593.359 416.188 588.76C422.749 584.161 418.773 569.75 407.628 572.202Z" fill="#8806CE"/>
<path d="M408.144 630.114C399.316 615.607 386.43 575.236 405.504 529.814C424.579 484.393 406.888 479.299 403.645 460.504" stroke="black" stroke-width="2"/>
<path d="M397.284 465.911C395.407 475.936 404.544 478.875 411.971 481.855C413.005 478.003 418.375 472.449 416.535 464.861C414.694 457.273 399.302 455.125 397.284 465.911Z" fill="#8806CE"/>
<path d="M369.548 145.649L18.5063 158.037C10.9711 158.303 5 164.488 5 172.028V628.954C5 637.354 11.898 644.117 20.2968 643.951L365.155 637.127C372.717 636.977 378.793 630.848 378.878 623.285L384.041 159.796C384.13 151.81 377.53 145.368 369.548 145.649Z" fill="url(#paint0_linear_8_39)" stroke="#E0B0FF" stroke-width="10"/>
<rect width="319.595" height="24.6828" rx="12.3414" transform="matrix(0.999659 -0.0261223 0.0284398 0.999595 39.0305 356.709)" fill="#E0B0FF"/>
<rect width="319.598" height="24.6825" rx="12.3413" transform="matrix(0.999763 -0.0217921 0.0237258 0.999719 40.2879 399.21)" fill="#E0B0FF" fill-opacity="0.5"/>
<rect width="279.872" height="24.6825" rx="12.3413" transform="matrix(0.999763 -0.0217921 0.0237258 0.999719 78.6784 440.435)" fill="#E9C7FF" fill-opacity="0.5"/>
<rect width="279.872" height="24.6825" rx="12.3413" transform="matrix(0.999763 -0.0217921 0.0237258 0.999719 80.8246 490.305)" fill="#E9C7FF" fill-opacity="0.5"/>
<rect width="279.872" height="24.6825" rx="12.3413" transform="matrix(0.999763 -0.0217921 0.0237258 0.999719 79.3938 533.498)" fill="#E9C7FF" fill-opacity="0.5"/>
<ellipse cx="55.4279" cy="454.183" rx="15.3811" ry="13.8562" fill="#EEEDED"/>
<ellipse cx="55.4279" cy="501.49" rx="15.3811" ry="13.8562" fill="#EEEDED"/>
<ellipse cx="55.4279" cy="549.483" rx="15.3811" ry="13.8562" fill="#EEEDED"/>
<ellipse cx="62.127" cy="58.1425" rx="62.127" ry="58.1425" transform="matrix(0.989554 -0.144161 0.156659 0.987653 110.871 215.533)" fill="white"/>
<path d="M237.988 255.766C242.538 284.45 221.318 311.894 189.783 316.488C158.248 321.082 129.477 300.921 124.928 272.237C120.378 243.553 141.598 216.109 173.133 211.515C204.668 206.921 233.438 227.082 237.988 255.766Z" stroke="#E9C7FF" stroke-opacity="0.5" stroke-width="10"/>
<path d="M433.661 145.974C433.834 125.136 440.428 104.812 452.608 87.5709C464.788 70.3302 482.008 56.9475 502.089 49.115C522.171 41.2826 544.212 39.3522 565.426 43.568C586.64 47.7838 606.074 57.9565 621.271 72.7996C636.467 87.6426 646.743 106.49 650.799 126.957C654.856 147.424 652.51 168.593 644.059 187.786C635.609 206.978 621.432 223.334 603.323 234.783C585.213 246.232 563.984 252.261 542.32 252.108L542.287 336.722" stroke="#8806CE" stroke-width="55" stroke-linecap="round" stroke-linejoin="round"/>
<ellipse cx="545.663" cy="399.52" rx="20.9718" ry="20.8699" fill="#8806CE"/>
<defs>
<linearGradient id="paint0_linear_8_39" x1="115.164" y1="191.793" x2="130.935" y2="621.379" gradientUnits="userSpaceOnUse">
<stop stop-color="#FEFEFE"/>
<stop offset="1" stop-color="#F9F9F9"/>
</linearGradient>
</defs>
</svg>
