<svg width="1529" height="1026" viewBox="0 0 1529 1026" fill="none" xmlns="http://www.w3.org/2000/svg">
<g clip-path="url(#clip0_1_5)">
<ellipse cx="506" cy="656" rx="370" ry="373" fill="#E0B0FF"/>
<ellipse cx="1276" cy="293" rx="296" ry="293" fill="#E9C7FF"/>
<ellipse cx="797" cy="157.5" rx="113" ry="112.5" fill="#FAE6FA"/>
<ellipse cx="96.5" cy="382" rx="76.5" ry="75" fill="#FAE6FA"/>
<path d="M523.039 1044C468.584 963.019 360.327 765.308 333.082 641.285C297.63 479.903 339.059 508.876 347.5 535.42C355.941 561.964 359.936 586.609 374.146 581.665C388.356 576.721 346.988 487.177 370.722 486.263C394.455 485.349 435.403 577.437 419.576 527.232C398.053 458.956 412.369 439.937 431.985 465.977C440.926 477.846 451.686 493.778 459.707 506.44C453.338 485.183 452.127 452.6 468.96 426.5C492.5 390 506.386 527.103 523.039 525.329C548.019 522.668 535.519 475.973 558.301 479.035C581.084 482.098 571.958 607.249 544.666 588.202C530.048 577.999 694 779 754.5 910L740.917 1020.79L523.039 1044Z" fill="white" stroke="black" stroke-width="2"/>
<path d="M1067 672C896.2 693.2 710.333 925 684 1025H1528.5C1529.17 963.167 1530.1 873.1 1528.5 821.5C1526.9 769.9 1280.5 645.5 1067 672Z" fill="#8806CE" stroke="black" stroke-width="2"/>
<path d="M996 757C1006.87 774.356 1075 779 1168 716.5" stroke="black" stroke-width="2"/>
<path d="M1081.3 740.534C1011.74 761.782 1007.26 744.993 998.265 742.343C1008.9 728.698 995.522 636.217 984.025 601.686C1020.32 589.725 1104.21 571.229 1099.28 585.499C1094.34 599.769 1128.84 668.806 1149.25 701.095C1149.25 701.095 1123.66 727.593 1081.3 740.534Z" fill="white" stroke="black" stroke-width="2"/>
<ellipse cx="1026" cy="518.5" rx="100" ry="114.5" fill="white"/>
<path d="M1095 456.5C1067.72 469.304 1031.49 423.188 1017 408.35C1017 345.829 1146.46 386.343 1186.49 408.35C1226.51 430.357 1250.23 474.872 1262.09 497.379C1273.95 519.886 1273.95 664.434 1234.42 678.939C1194.89 693.443 1145.5 708.5 1121.5 668C1108.4 645.895 1101.84 633.713 1095 601.5C1083 545 1129.1 440.495 1095 456.5Z" fill="black" stroke="black"/>
<path d="M885.5 428.5C911.5 385.3 980.333 382.833 1018.5 390C1078.33 369.167 1052.3 392.471 1018.5 404C858.737 458.5 958.5 620 984.5 624C1005.3 627.2 1005.17 694.333 996.5 714.5C972.333 735.333 913.5 776.2 871.5 789C819 805 853 482.5 885.5 428.5Z" fill="black" stroke="black"/>
<circle cx="973" cy="502" r="7" fill="black"/>
<circle cx="1033" cy="502" r="7" fill="black"/>
<path d="M996 501C996 514.335 986.073 525 974 525C961.927 525 952 514.335 952 501C952 487.665 961.927 477 974 477C986.073 477 996 487.665 996 501Z" stroke="black" stroke-width="2"/>
<path d="M1055 502C1055 515.335 1045.07 526 1033 526C1020.93 526 1011 515.335 1011 502C1011 488.665 1020.93 478 1033 478C1045.07 478 1055 488.665 1055 502Z" stroke="black" stroke-width="2"/>
<rect x="996" y="495" width="17" height="10" fill="black"/>
<path d="M1002 527V547H1018" stroke="black" stroke-width="2"/>
<path d="M1033 568H994C996.982 574.687 1005.81 587.616 1017.26 585.833C1028.71 584.05 1032.52 573.201 1033 568Z" stroke="black" stroke-width="2"/>
<path d="M973.595 457.076C969.16 457.776 959.43 460.576 955.303 463.201C955.303 466.759 953.791 475.124 957.52 472.499C977.567 458.388 989.669 473.374 993.734 472.499C997.798 471.624 994.842 463.201 995.951 463.201C997.059 463.201 979.138 456.201 973.595 457.076Z" fill="black" stroke="black"/>
<path d="M1032.59 457.076C1028.16 457.776 1018.43 460.576 1014.3 463.201C1014.3 466.759 1012.79 475.124 1016.52 472.499C1036.57 458.388 1048.67 473.374 1052.73 472.499C1056.8 471.624 1053.84 463.201 1054.95 463.201C1056.06 463.201 1038.14 456.201 1032.59 457.076Z" fill="black" stroke="black"/>
</g>
<defs>
<clipPath id="clip0_1_5">
<rect width="1529" height="1026" fill="white"/>
</clipPath>
</defs>
</svg>
