<svg width="1041" height="808" viewBox="0 0 1041 808" fill="none" xmlns="http://www.w3.org/2000/svg">
<path d="M158.204 650.277C53.5689 676.824 3.17075 757.898 0 808H341.439C341.439 782.624 351.22 730.353 472.608 710.009C640.324 681.9 750.966 644.03 712.917 574.538C694.521 540.939 337.434 545.436 354.456 525.738C371.478 506.04 615.792 496.067 693.893 472.252C771.993 448.438 720.427 415.644 670.863 415.644C630.812 415.644 446.074 417.507 459.591 391.829C471.759 368.715 606.28 361.768 657.846 341.467C638.655 330.015 666.858 308.673 573.738 341.467C528.641 357.349 406.022 372.309 391.003 403.541C375.984 434.774 667.162 421.36 642.327 449.609C609.987 486.393 242.312 489.821 242.312 525.738C242.312 561.655 535.689 556.58 505.15 587.812C474.611 619.044 270.126 621.88 158.204 650.277Z" fill="#FAE6FA"/>
<path d="M68.8234 162.553C49.1678 162.553 38.716 180.204 37 190.104H198.925H214.837H249L214.837 176.622C188.161 167.047 217.987 129.598 152 125.104C118.305 122.809 107.199 159.036 104.391 172.127C101.427 169.652 90.5575 162.553 68.8234 162.553Z" fill="#EEEDED"/>
<path d="M223.823 76.4487C204.168 76.4487 193.716 94.0998 192 104H353.925H369.837H404L369.837 90.5174C343.161 80.9428 369.837 58.6673 303.85 54.1731C270.155 51.8782 262.199 72.9315 259.391 86.0232C256.427 83.5482 245.558 76.4487 223.823 76.4487Z" fill="#EEEDED"/>
<path d="M932.874 51.4487C954.57 51.4487 966.106 69.0998 968 79H789.272H771.709H734L771.709 65.5174C801.152 55.9428 771.709 33.6673 844.543 29.1731C881.735 26.8782 890.517 47.9315 893.616 61.0232C896.887 58.5482 908.885 51.4487 932.874 51.4487Z" fill="#EEEDED"/>
<path d="M789.433 204.183C761.989 204.183 747.396 227.13 745 240H971.084H993.3H1041L993.3 222.473C956.055 210.026 993.3 181.067 901.168 175.225C854.121 172.242 843.013 199.611 839.093 216.63C834.954 213.413 819.778 204.183 789.433 204.183Z" fill="#EEEDED"/>
<path d="M779 244.5L845.5 353H381.5H368H311C330 303.5 370.7 202.6 381.5 195C395 185.5 493.5 164.5 507 164.5C520.5 164.5 524 82.5 543 67.5C558.2 55.5 612.667 62.5 638 67.5L663 164.5H684L779 244.5Z" fill="#8806CE"/>
<path d="M426.449 352.721H444C437.844 354.491 432.009 354.36 426.449 352.721H37C70.5954 341.995 140.32 317.881 150.453 307.24C163.12 293.939 187.904 281.067 187.904 248.457C187.904 227.004 278.226 224 320.083 224C353.678 224 380.773 339.258 426.449 352.721Z" fill="#E9C7FF"/>
<path d="M342.085 784.5H251.085V742.5C265.459 744.68 297.693 749.592 311.639 751.795C325.585 753.998 340.556 774.516 342.085 784.5Z" fill="#8806CE"/>
<path d="M204.085 784.5H113.085V742.5C127.459 744.68 159.693 749.592 173.639 751.795C187.585 753.998 202.556 774.516 204.085 784.5Z" fill="#8806CE"/>
<path d="M271.21 438.337L374.332 424.362L390.748 466.694L278.274 490.462L271.21 438.337Z" fill="#E9C7FF" stroke="black" stroke-width="2"/>
<path d="M277.446 484.355L385.323 469.736L399.057 511.963L283.313 527.648L277.446 484.355Z" fill="#E9C7FF" stroke="black" stroke-width="2"/>
<path d="M289.001 445.245C284.225 438.81 280.734 414.118 277.085 402.577C322.361 387.457 362.585 402.577 362.585 418.665C362.585 430.774 340.343 423.609 324.694 415.349C332.802 434.023 335.119 466.579 327.312 466.579C318.556 466.579 305.752 434.636 300.445 418.665C304.923 432.888 311.192 462.383 300.445 466.579C287.011 471.826 294.972 453.289 289.001 445.245Z" fill="white"/>
<path d="M277.085 402.577C280.734 414.118 284.225 438.81 289.001 445.245C294.972 453.289 287.011 471.826 300.445 466.579C311.192 462.383 304.923 432.888 300.445 418.665C305.752 434.636 318.556 466.579 327.312 466.579C338.258 466.579 329.302 402.577 312.386 402.577C295.47 402.577 362.585 439.699 362.585 418.665C362.585 402.577 322.361 387.457 277.085 402.577Z" stroke="black" stroke-width="2"/>
<path d="M283.085 432.5C286.252 421.935 294.685 407.145 303.085 432.5" stroke="black" stroke-width="2"/>
<path d="M307.085 432.5C310.41 421.935 319.265 407.145 328.085 432.5" stroke="black" stroke-width="2"/>
<path d="M128.585 445.5C114.985 431.9 131.252 397.667 142.585 387.5H269.585C273.418 414.167 292.185 471.3 304.585 486.5C316.985 501.7 335.085 670.5 342.585 753H220.585V513L205.585 753H74.085C96.9183 652.667 142.185 459.1 128.585 445.5Z" fill="white" stroke="black" stroke-width="2"/>
<path d="M201.042 168.623C195.657 159.277 185.589 147.216 188.399 173.742" stroke="black" stroke-width="2"/>
<path d="M237.517 224.946V248.196L216.333 256.5L194.591 185.089C187.53 180.107 175.526 167.264 183.999 155.75C192.473 144.236 202.025 160.548 205.741 170.143L237.517 132.5C249.41 135.268 256.36 146.671 264.834 170.143C273.307 193.614 256.471 216.458 237.517 224.946Z" fill="white" stroke="black" stroke-width="2"/>
<path d="M269.508 172.8C267.882 181.652 312.531 206.955 335.059 218.5H399.085C384.179 203.267 370.515 161.736 356.401 161.736C317.782 161.736 269.508 129.025 259.853 139.608C250.198 150.191 335.059 183.864 317.782 183.864C300.505 183.864 271.541 161.736 269.508 172.8Z" fill="white" stroke="black" stroke-width="2"/>
<path fill-rule="evenodd" clip-rule="evenodd" d="M276.321 254.911C294.465 246.338 312.931 240.173 321.585 244.5C336.785 252.1 327.918 233.667 321.585 223.5L401.585 204.5C419.252 221.667 451.985 257.9 441.585 265.5C433.095 271.704 354.504 295.211 295.184 312.251C295.625 317.525 296.005 323.005 296.396 328.648C298.024 352.116 299.847 378.407 307.085 404.5H249.309L232.734 390.096V404.5H149.859V390.096L133.757 404.5H83.085C103.606 366.973 145.691 288.506 149.859 274.86C154.026 261.214 181.588 251.737 194.848 248.705C201.005 242.513 223.736 233.845 265.411 248.705C269.641 250.213 273.243 252.302 276.321 254.911Z" fill="#FAE6FA"/>
<path d="M276.321 254.911L275.674 255.674L276.165 256.091L276.748 255.815L276.321 254.911ZM321.585 223.5L321.354 222.527L320.001 222.848L320.736 224.029L321.585 223.5ZM401.585 204.5L402.282 203.783L401.888 203.4L401.354 203.527L401.585 204.5ZM441.585 265.5L442.175 266.307L442.175 266.307L441.585 265.5ZM295.184 312.251L294.908 311.29L294.119 311.516L294.187 312.334L295.184 312.251ZM296.396 328.648L295.399 328.717L295.399 328.717L296.396 328.648ZM307.085 404.5V405.5H308.4L308.049 404.233L307.085 404.5ZM249.309 404.5L248.653 405.255L248.935 405.5H249.309V404.5ZM232.734 390.096L233.39 389.341L231.734 387.902V390.096H232.734ZM232.734 404.5V405.5H233.734V404.5H232.734ZM149.859 404.5H148.859V405.5H149.859V404.5ZM149.859 390.096H150.859V387.859L149.192 389.35L149.859 390.096ZM133.757 404.5V405.5H134.139L134.424 405.245L133.757 404.5ZM83.085 404.5L82.2076 404.02L81.3984 405.5H83.085V404.5ZM149.859 274.86L148.902 274.568L148.902 274.568L149.859 274.86ZM194.848 248.705L195.071 249.679L195.353 249.615L195.557 249.41L194.848 248.705ZM265.411 248.705L265.746 247.763L265.746 247.763L265.411 248.705ZM322.032 243.606C319.665 242.422 316.703 241.99 313.381 242.096C310.051 242.203 306.286 242.853 302.26 243.9C294.208 245.995 284.992 249.708 275.894 254.007L276.748 255.815C285.794 251.541 294.883 247.885 302.763 245.836C306.703 244.811 310.312 244.195 313.445 244.095C316.586 243.995 319.178 244.415 321.138 245.394L322.032 243.606ZM320.736 224.029C323.899 229.106 327.616 236.132 328.684 240.882C328.949 242.061 329.033 243.027 328.942 243.752C328.853 244.467 328.612 244.834 328.327 245.027C328.022 245.233 327.446 245.392 326.376 245.211C325.313 245.031 323.889 244.534 322.032 243.606L321.138 245.394C323.081 246.366 324.705 246.956 326.042 247.183C327.371 247.408 328.547 247.294 329.449 246.682C330.371 246.057 330.794 245.061 330.927 244C331.059 242.95 330.925 241.728 330.636 240.443C329.487 235.335 325.604 228.061 322.434 222.971L320.736 224.029ZM401.354 203.527L321.354 222.527L321.816 224.473L401.816 205.473L401.354 203.527ZM442.175 266.307C443.772 265.14 444.501 263.428 444.576 261.438C444.649 259.488 444.101 257.233 443.136 254.807C441.204 249.948 437.471 244.085 432.911 237.989C423.776 225.776 411.135 212.385 402.282 203.783L400.888 205.217C409.702 213.781 422.261 227.09 431.309 239.186C435.841 245.245 439.445 250.938 441.278 255.546C442.195 257.854 442.636 259.811 442.577 261.363C442.521 262.878 441.998 263.96 440.995 264.693L442.175 266.307ZM295.46 313.212C325.123 304.691 359.609 294.552 387.744 285.767C401.81 281.374 414.297 277.318 423.802 273.969C428.554 272.295 432.571 270.795 435.671 269.516C438.737 268.251 441.003 267.164 442.175 266.307L440.995 264.693C440.045 265.387 437.997 266.392 434.908 267.667C431.854 268.927 427.875 270.414 423.138 272.083C413.666 275.419 401.206 279.468 387.148 283.858C359.034 292.636 324.565 302.771 294.908 311.29L295.46 313.212ZM294.187 312.334C294.628 317.6 295.007 323.073 295.399 328.717L297.394 328.579C297.003 322.937 296.622 317.45 296.18 312.167L294.187 312.334ZM295.399 328.717C297.026 352.173 298.853 378.562 306.121 404.767L308.049 404.233C300.842 378.252 299.022 352.059 297.394 328.579L295.399 328.717ZM307.085 403.5H249.309V405.5H307.085V403.5ZM249.965 403.745L233.39 389.341L232.078 390.85L248.653 405.255L249.965 403.745ZM231.734 390.096V404.5H233.734V390.096H231.734ZM232.734 403.5H149.859V405.5H232.734V403.5ZM150.859 404.5V390.096H148.859V404.5H150.859ZM149.192 389.35L133.091 403.755L134.424 405.245L150.525 390.841L149.192 389.35ZM133.757 403.5H83.085V405.5H133.757V403.5ZM83.9623 404.98C94.225 386.213 109.88 357.208 123.491 331.188C130.296 318.179 136.593 305.91 141.45 296.038C146.29 286.2 149.745 278.657 150.815 275.152L148.902 274.568C147.889 277.886 144.52 285.269 139.656 295.155C134.809 305.005 128.521 317.257 121.719 330.261C108.115 356.267 92.4664 385.26 82.2076 404.02L83.9623 404.98ZM150.815 275.152C151.779 271.997 154.126 268.997 157.427 266.206C160.721 263.423 164.893 260.906 169.385 258.7C178.368 254.288 188.497 251.183 195.071 249.679L194.625 247.73C187.94 249.259 177.657 252.409 168.503 256.905C163.925 259.153 159.597 261.753 156.136 264.679C152.683 267.598 150.022 270.9 148.902 274.568L150.815 275.152ZM195.557 249.41C198.414 246.537 205.379 242.877 216.903 241.806C228.393 240.739 244.348 242.256 265.075 249.647L265.746 247.763C244.799 240.294 228.55 238.715 216.718 239.815C204.917 240.911 197.439 244.681 194.139 247.999L195.557 249.41ZM265.075 249.647C269.197 251.116 272.692 253.146 275.674 255.674L276.967 254.148C273.794 251.458 270.086 249.31 265.746 247.763L265.075 249.647Z" fill="black"/>
<path d="M227.585 258L187.585 170.5C175.085 170.5 187.585 149.5 187.585 149.5C187.585 149.5 202.585 154.5 204.585 166.5H227.585L246.585 170.5L237.085 149.5L260.085 168.5H280.585C259.752 140 212.921 104 191.085 104C147.585 104 162.512 115.816 122.585 144C71.585 180 67.585 275 77.085 300C84.685 320 145.752 308.333 168.585 300V258C169.752 268.167 175.185 287.7 187.585 284.5C199.985 281.3 222.585 259.833 227.585 258Z" fill="black"/>
<path d="M137.5 524.5L92 739.5H189" stroke="#8806CE" stroke-width="3"/>
<path d="M132.5 528L87 743H184" stroke="#FAE6FA" stroke-width="5"/>
<path d="M299 507L326 728" stroke="#8806CE" stroke-width="3"/>
<path d="M295 507L322 728" stroke="#FAE6FA" stroke-width="4"/>
<path d="M259.918 416.086C265.471 433.153 282.096 482.7 290.5 488" stroke="#8806CE" stroke-width="3"/>
<path d="M255.918 416.086C261.471 433.153 278.096 482.7 286.5 488" stroke="#FAE6FA" stroke-width="4"/>
<rect x="302.352" y="479.508" width="86" height="4" transform="rotate(-6.29338 302.352 479.508)" fill="black"/>
<path d="M432.5 208.5C420.5 200.9 427.5 187.333 432.5 181.5L480 170.5C474.333 179.333 466.4 199.3 480 208.5C493.6 217.7 485.667 244 480 256C473.667 250.833 461.4 237.5 463 225.5C465 210.5 447.5 218 432.5 208.5Z" fill="#7B07BA"/>
<path d="M613.5 195L634 67.5L664.5 164.5C659.5 168.333 649.5 179.8 649.5 195C649.5 210.2 625.5 252 613.5 271C620.333 262.833 637.1 242.7 649.5 227.5C661.9 212.3 680 207.167 687.5 206.5L693 172L777 246.5C758.667 254.667 718.9 276 706.5 296C694.1 316 688.667 342.333 687.5 353H577H516L548.5 322.5L565.5 271L613.5 195Z" fill="#7B07BA"/>
<path d="M748.5 319C744.1 331.4 706 345.833 687.5 351.5H843.5C824.5 317.167 782.7 244.3 773.5 247.5C762 251.5 754 303.5 748.5 319Z" fill="#7B07BA"/>
<rect x="590" width="1.66637" height="62.41" fill="black"/>
<path d="M604.997 5.2277C597.908 -3.91877 592.045 1.41667 590 5.2277L590 20.384C590 26.8668 590 30.8534 590 28.0939C590 14.6149 604.997 18.8672 604.997 28.0939V5.2277Z" fill="#7B07BA" fill-opacity="0.65"/>
<path d="M618.296 5.3948C611.979 12.109 606.798 8.1924 604.997 5.3948V24.714C604.997 32.4417 617.003 27.9339 623.006 24.714V1.27758C624.068 -0.14761 624.613 -1.31943 618.296 5.3948Z" fill="#7B07BA"/>
</svg>
