<svg width="175" height="166" viewBox="0 0 175 166" fill="none" xmlns="http://www.w3.org/2000/svg">
<path fill-rule="evenodd" clip-rule="evenodd" d="M71 166C110.212 166 142 134.424 142 95.474C142 56.5235 110.212 24.948 71 24.948C31.7878 24.948 0 56.5235 0 95.474C0 134.424 31.7878 166 71 166ZM102.278 139.547L100.886 52.6203L89.5751 52.787L90.6185 117.966L48.1421 53.3977L36.8309 53.5644L38.2223 140.491L49.5336 140.324L48.4912 75.2074L90.9666 139.713L102.278 139.547Z" fill="#8806CE"/>
<path d="M162.152 36.9121V122.43C162.061 125.438 162.016 127.898 162.016 129.812C162.016 131.681 161.833 133.937 161.469 136.58C161.15 139.269 160.694 141.525 160.102 143.348C159.555 145.216 158.734 147.29 157.641 149.568C156.547 151.847 155.248 153.829 153.744 155.516C150.098 159.617 145.518 163.058 140.004 165.838L134.672 159.07C140.004 154.969 143.855 150.503 146.225 145.672C148.594 140.887 149.779 134.757 149.779 127.283V36.9121H162.152Z" fill="black"/>
</svg>
